<mxfile host="app.diagrams.net" agent="Mozilla/5.0 (Windows NT 10.0; Win64; x64) AppleWebKit/537.36 (KHTML, like Gecko) Chrome/137.0.0.0 Safari/537.36 Edg/137.0.0.0" version="27.1.6" pages="2">
  <diagram name="Página-1" id="As-ylru9SlLK7KS7QaXn">
    <mxGraphModel grid="1" page="1" gridSize="10" guides="1" tooltips="1" connect="1" arrows="1" fold="1" pageScale="1" pageWidth="827" pageHeight="1169" math="0" shadow="0">
      <root>
        <mxCell id="0" />
        <mxCell id="1" parent="0" />
        <mxCell id="sEuESF4rzVyC_rkCTEI_-43" value="Usuario" style="html=1;whiteSpace=wrap;" vertex="1" parent="1">
          <mxGeometry x="600" y="410" width="110" height="50" as="geometry" />
        </mxCell>
        <mxCell id="sEuESF4rzVyC_rkCTEI_-44" value="Sistema&lt;span style=&quot;color: rgba(0, 0, 0, 0); font-family: monospace; font-size: 0px; text-align: start; text-wrap-mode: nowrap;&quot;&gt;%3CmxGraphModel%3E%3Croot%3E%3CmxCell%20id%3D%220%22%2F%3E%3CmxCell%20id%3D%221%22%20parent%3D%220%22%2F%3E%3CmxCell%20id%3D%222%22%20value%3D%22Usuario%22%20style%3D%22html%3D1%3BwhiteSpace%3Dwrap%3B%22%20vertex%3D%221%22%20parent%3D%221%22%3E%3CmxGeometry%20x%3D%2270%22%20y%3D%2240%22%20width%3D%22110%22%20height%3D%2250%22%20as%3D%22geometry%22%2F%3E%3C%2FmxCell%3E%3C%2Froot%3E%3C%2FmxGraphModel%3E&lt;/span&gt;" style="html=1;whiteSpace=wrap;" vertex="1" parent="1">
          <mxGeometry x="800" y="410" width="110" height="50" as="geometry" />
        </mxCell>
        <mxCell id="sEuESF4rzVyC_rkCTEI_-46" value="Usuario" style="html=1;whiteSpace=wrap;" vertex="1" parent="1">
          <mxGeometry x="600" y="700" width="110" height="50" as="geometry" />
        </mxCell>
        <mxCell id="sEuESF4rzVyC_rkCTEI_-47" value="Sistema&lt;span style=&quot;color: rgba(0, 0, 0, 0); font-family: monospace; font-size: 0px; text-align: start; text-wrap-mode: nowrap;&quot;&gt;%3CmxGraphModel%3E%3Croot%3E%3CmxCell%20id%3D%220%22%2F%3E%3CmxCell%20id%3D%221%22%20parent%3D%220%22%2F%3E%3CmxCell%20id%3D%222%22%20value%3D%22Usuario%22%20style%3D%22html%3D1%3BwhiteSpace%3Dwrap%3B%22%20vertex%3D%221%22%20parent%3D%221%22%3E%3CmxGeometry%20x%3D%2270%22%20y%3D%2240%22%20width%3D%22110%22%20height%3D%2250%22%20as%3D%22geometry%22%2F%3E%3C%2FmxCell%3E%3C%2Froot%3E%3C%2FmxGraphModel%3E&lt;/span&gt;" style="html=1;whiteSpace=wrap;" vertex="1" parent="1">
          <mxGeometry x="800" y="700" width="110" height="50" as="geometry" />
        </mxCell>
        <mxCell id="sEuESF4rzVyC_rkCTEI_-51" value="" style="endArrow=none;dashed=1;html=1;rounded=0;entryX=0.5;entryY=1;entryDx=0;entryDy=0;exitX=0.5;exitY=0;exitDx=0;exitDy=0;" edge="1" parent="1" source="sEuESF4rzVyC_rkCTEI_-53" target="sEuESF4rzVyC_rkCTEI_-44">
          <mxGeometry width="50" height="50" relative="1" as="geometry">
            <mxPoint x="830" y="690" as="sourcePoint" />
            <mxPoint x="880" y="640" as="targetPoint" />
          </mxGeometry>
        </mxCell>
        <mxCell id="sEuESF4rzVyC_rkCTEI_-53" value="" style="html=1;points=[[0,0,0,0,5],[0,1,0,0,-5],[1,0,0,0,5],[1,1,0,0,-5]];perimeter=orthogonalPerimeter;outlineConnect=0;targetShapes=umlLifeline;portConstraint=eastwest;newEdgeStyle={&quot;curved&quot;:0,&quot;rounded&quot;:0};" vertex="1" parent="1">
          <mxGeometry x="850" y="500" width="10" height="30" as="geometry" />
        </mxCell>
        <mxCell id="sEuESF4rzVyC_rkCTEI_-54" value="" style="endArrow=classic;html=1;rounded=0;entryX=0;entryY=0;entryDx=0;entryDy=5;entryPerimeter=0;" edge="1" parent="1" target="sEuESF4rzVyC_rkCTEI_-53">
          <mxGeometry width="50" height="50" relative="1" as="geometry">
            <mxPoint x="650" y="505" as="sourcePoint" />
            <mxPoint x="760" y="480" as="targetPoint" />
          </mxGeometry>
        </mxCell>
        <mxCell id="sEuESF4rzVyC_rkCTEI_-55" value="1.Pulsa el apartado &quot;Evento&quot;" style="text;html=1;align=center;verticalAlign=middle;whiteSpace=wrap;rounded=0;" vertex="1" parent="1">
          <mxGeometry x="665" y="480" width="170" height="20" as="geometry" />
        </mxCell>
        <mxCell id="sEuESF4rzVyC_rkCTEI_-67" value="" style="endArrow=none;dashed=1;html=1;rounded=0;exitX=0.5;exitY=0;exitDx=0;exitDy=0;entryX=0.444;entryY=1.081;entryDx=0;entryDy=0;entryPerimeter=0;" edge="1" parent="1" source="sEuESF4rzVyC_rkCTEI_-46" target="sEuESF4rzVyC_rkCTEI_-43">
          <mxGeometry width="50" height="50" relative="1" as="geometry">
            <mxPoint x="652.09" y="1240.0000000000002" as="sourcePoint" />
            <mxPoint x="647.91" y="1050.3600000000001" as="targetPoint" />
          </mxGeometry>
        </mxCell>
        <mxCell id="sEuESF4rzVyC_rkCTEI_-86" value="" style="html=1;points=[[0,0,0,0,5],[0,1,0,0,-5],[1,0,0,0,5],[1,1,0,0,-5]];perimeter=orthogonalPerimeter;outlineConnect=0;targetShapes=umlLifeline;portConstraint=eastwest;newEdgeStyle={&quot;curved&quot;:0,&quot;rounded&quot;:0};" vertex="1" parent="1">
          <mxGeometry x="650" y="550" width="10" height="30" as="geometry" />
        </mxCell>
        <mxCell id="sEuESF4rzVyC_rkCTEI_-92" value="" style="endArrow=classic;html=1;rounded=0;fontSize=12;startSize=8;endSize=8;curved=1;entryX=1;entryY=0;entryDx=0;entryDy=5;entryPerimeter=0;" edge="1" parent="1" target="T0tGwSlQTs2uB8gGUKFm-11">
          <mxGeometry width="50" height="50" relative="1" as="geometry">
            <mxPoint x="850" y="665" as="sourcePoint" />
            <mxPoint x="851.25" y="674.5800000000002" as="targetPoint" />
          </mxGeometry>
        </mxCell>
        <mxCell id="JzHU_n6rtim2MyVxcVec-3" value="" style="endArrow=none;dashed=1;html=1;rounded=0;exitX=0.5;exitY=0;exitDx=0;exitDy=0;entryX=0.5;entryY=0;entryDx=0;entryDy=0;" edge="1" parent="1" source="sEuESF4rzVyC_rkCTEI_-47" target="sEuESF4rzVyC_rkCTEI_-47">
          <mxGeometry width="50" height="50" relative="1" as="geometry">
            <mxPoint x="856" y="880" as="sourcePoint" />
            <mxPoint x="856.25" y="810" as="targetPoint" />
          </mxGeometry>
        </mxCell>
        <mxCell id="T0tGwSlQTs2uB8gGUKFm-3" value="" style="endArrow=classic;html=1;rounded=0;entryX=1;entryY=0;entryDx=0;entryDy=5;entryPerimeter=0;" edge="1" parent="1" target="sEuESF4rzVyC_rkCTEI_-86">
          <mxGeometry width="50" height="50" relative="1" as="geometry">
            <mxPoint x="850" y="555" as="sourcePoint" />
            <mxPoint x="670" y="550" as="targetPoint" />
          </mxGeometry>
        </mxCell>
        <mxCell id="T0tGwSlQTs2uB8gGUKFm-5" value="" style="endArrow=none;dashed=1;html=1;rounded=0;" edge="1" parent="1" source="sEuESF4rzVyC_rkCTEI_-47">
          <mxGeometry width="50" height="50" relative="1" as="geometry">
            <mxPoint x="856.05" y="660" as="sourcePoint" />
            <mxPoint x="856.05" y="520" as="targetPoint" />
          </mxGeometry>
        </mxCell>
        <mxCell id="T0tGwSlQTs2uB8gGUKFm-7" value="2. Muestra el apartado" style="text;html=1;align=center;verticalAlign=middle;whiteSpace=wrap;rounded=0;" vertex="1" parent="1">
          <mxGeometry x="670" y="530" width="170" height="20" as="geometry" />
        </mxCell>
        <mxCell id="T0tGwSlQTs2uB8gGUKFm-8" value="" style="endArrow=classic;html=1;rounded=0;fontSize=12;startSize=8;endSize=8;curved=1;entryX=0;entryY=0;entryDx=0;entryDy=5;entryPerimeter=0;" edge="1" parent="1" target="T0tGwSlQTs2uB8gGUKFm-9">
          <mxGeometry width="50" height="50" relative="1" as="geometry">
            <mxPoint x="660" y="605" as="sourcePoint" />
            <mxPoint x="456.25" y="670" as="targetPoint" />
          </mxGeometry>
        </mxCell>
        <mxCell id="T0tGwSlQTs2uB8gGUKFm-9" value="" style="html=1;points=[[0,0,0,0,5],[0,1,0,0,-5],[1,0,0,0,5],[1,1,0,0,-5]];perimeter=orthogonalPerimeter;outlineConnect=0;targetShapes=umlLifeline;portConstraint=eastwest;newEdgeStyle={&quot;curved&quot;:0,&quot;rounded&quot;:0};" vertex="1" parent="1">
          <mxGeometry x="850" y="600" width="10" height="30" as="geometry" />
        </mxCell>
        <mxCell id="T0tGwSlQTs2uB8gGUKFm-10" value="3. Pulsar el botón &quot;Ver calendario&quot;" style="text;html=1;align=center;verticalAlign=middle;whiteSpace=wrap;rounded=0;" vertex="1" parent="1">
          <mxGeometry x="670" y="580" width="170" height="20" as="geometry" />
        </mxCell>
        <mxCell id="T0tGwSlQTs2uB8gGUKFm-11" value="" style="html=1;points=[[0,0,0,0,5],[0,1,0,0,-5],[1,0,0,0,5],[1,1,0,0,-5]];perimeter=orthogonalPerimeter;outlineConnect=0;targetShapes=umlLifeline;portConstraint=eastwest;newEdgeStyle={&quot;curved&quot;:0,&quot;rounded&quot;:0};" vertex="1" parent="1">
          <mxGeometry x="650" y="660" width="10" height="30" as="geometry" />
        </mxCell>
        <mxCell id="T0tGwSlQTs2uB8gGUKFm-12" value="4. Muestra el calendario&amp;nbsp;" style="text;html=1;align=center;verticalAlign=middle;whiteSpace=wrap;rounded=0;" vertex="1" parent="1">
          <mxGeometry x="665" y="640" width="170" height="20" as="geometry" />
        </mxCell>
      </root>
    </mxGraphModel>
  </diagram>
  <diagram id="nIOQxxJyPP5hoQOKl2aF" name="Página-2">
    <mxGraphModel dx="1111" dy="507" grid="1" gridSize="10" guides="1" tooltips="1" connect="1" arrows="1" fold="1" page="1" pageScale="1" pageWidth="827" pageHeight="1169" math="0" shadow="0">
      <root>
        <mxCell id="0" />
        <mxCell id="1" parent="0" />
      </root>
    </mxGraphModel>
  </diagram>
</mxfile>
